<svg width="16" height="16" viewBox="0 0 16 16" fill="none" xmlns="http://www.w3.org/2000/svg">
<path fill-rule="evenodd" clip-rule="evenodd" d="M7.64599 2.64604C7.69244 2.59948 7.74761 2.56253 7.80836 2.53733C7.8691 2.51212 7.93422 2.49915 7.99999 2.49915C8.06576 2.49915 8.13088 2.51212 8.19162 2.53733C8.25237 2.56253 8.30754 2.59948 8.35399 2.64604L14.354 8.64604C14.4479 8.73993 14.5006 8.86726 14.5006 9.00004C14.5006 9.13281 14.4479 9.26015 14.354 9.35404C14.2601 9.44793 14.1328 9.50067 14 9.50067C13.8672 9.50067 13.7399 9.44793 13.646 9.35404L7.99999 3.70704L2.35399 9.35404C2.2601 9.44793 2.13277 9.50067 1.99999 9.50067C1.86721 9.50067 1.73988 9.44793 1.64599 9.35404C1.5521 9.26015 1.49936 9.13281 1.49936 9.00004C1.49936 8.86726 1.5521 8.73993 1.64599 8.64604L7.64599 2.64604Z" fill="#212529"/>
<path fill-rule="evenodd" clip-rule="evenodd" d="M7.64599 6.64604C7.69244 6.59948 7.74761 6.56253 7.80836 6.53733C7.8691 6.51212 7.93422 6.49915 7.99999 6.49915C8.06576 6.49915 8.13088 6.51212 8.19162 6.53733C8.25237 6.56253 8.30754 6.59948 8.35399 6.64604L14.354 12.646C14.4479 12.7399 14.5006 12.8673 14.5006 13C14.5006 13.1328 14.4479 13.2602 14.354 13.354C14.2601 13.4479 14.1328 13.5007 14 13.5007C13.8672 13.5007 13.7399 13.4479 13.646 13.354L7.99999 7.70704L2.35399 13.354C2.2601 13.4479 2.13277 13.5007 1.99999 13.5007C1.86721 13.5007 1.73988 13.4479 1.64599 13.354C1.5521 13.2602 1.49936 13.1328 1.49936 13C1.49936 12.8673 1.5521 12.7399 1.64599 12.646L7.64599 6.64604Z" fill="#212529"/>
</svg>
